<?xml version="1.0" encoding="UTF-8"?>
<svg id="Capa_2" data-name="Capa 2" xmlns="http://www.w3.org/2000/svg" viewBox="0 0 76 94.37">
  <defs>
    <style>
      .cls-1 {
        fill: #686767;
      }

      .cls-2 {
        fill: #113250;
      }

      .cls-3 {
        fill: #a08426;
      }

      .cls-4 {
        fill: #dadada;
      }
    </style>
  </defs>
  <g id="Firma_Base" data-name="Firma Base">
    <g>
      <path class="cls-4" d="M70.84,43.61c-1.5,26.63-23.8,33.45-23.8,33.45-1.78.54-3.62.92-5.49,1.13-1.08.11-2.18.17-3.29.17-17.99-.03-33.99-16.97-33.99-36.17,0-20.72,15.99-33.75,33.99-33.75s33.21,16.2,32.57,35.17Z"/>
      <path class="cls-2" d="M8.5,29.8c0-16.44,8.45-23.92,14.61-25.72,7.17-2.09,13.68.74,13.68.74C22.06-5.53,8.45,2.66,4.11,11.79,1.44,17.4,0,23.54,0,29.64c0,38.47,26.75,64.73,45.19,64.73s21.52-21.08,21.52-21.08c0,0-3.19,14.27-19.55,13.44S8.5,60.99,8.5,29.8Z"/>
      <g>
        <path class="cls-3" d="M46.81,77.13v-1.91c3.93-1.47,6.08-3.48,7.03-4.61.41-.48.65-1.08.7-1.72.34-4.44,3.48-7.24,3.48-7.24,0,0,1.71,3.86-.71,7.94l2.31-2.07c.19-.17.29-.41.27-.66-.12-1.57-.38-7.44,1.89-9.82,0,0,2.38,3.07.67,7.29.1-.1,1.4-.92,2.01-3.01.18-.62-.01-1.42-.29-2.34-1.48-4.87.55-7.26.39-6.98,2.37,1.13,2.14,6.73,2.14,6.73,0,0,1.69-3.1,1.6-4.37,0,0-2.67-2.89-2.17-8.54,0,0,3.22,1.98,3.34,6.48l.88-4.8s-3.94-3.63-3.71-7.7c0,0,3.08,1.1,3.95,5.4,0,0,.46-3.88.13-4.96-.07-.24-.32-.53-.58-.79-.37-.37-.81-.67-1.24-.96-3.08-2.02-3.35-4.99-3.35-4.99,0,0,3.56,1.17,4.9,4.68,0,0-.72-4.96-1.73-6.57,0,0-3.34.45-5.07-3.73,0,0,2.78-.22,4.85,2.9,0,0-2.73-11.27-13.76-16.25,0,0-3.16.44-4.33-.78,0,0,.69-.39,1.97-.37.73,0,1.65.15,2.73.57,3.01,1.17,21.18,12.36,14.99,39.62,2.69-5.14,5.91-6.29,5.91-6.29-.46,7.28-6.48,7.71-6.48,7.71l-2.26,5.26c2.67-3.34,7.19-5.18,7.19-5.18-2.09,7.94-8.52,7.02-8.52,7.02-1.12,2.11-3.09,4.43-3.09,4.43,3.35-3,9.02-3.84,9.02-3.84-2.98,6.26-9.2,5.92-10.75,5.73-.24-.03-.47.05-.64.21l-2.89,2.66c5.2-2.09,9.44-1.5,9.44-1.5.12-.09-3.35,5.52-10.46,3.92-.82-.19-1.41-.86-2.39-.16,0,0-3.99,2.65-7.36,3.62Z"/>
        <path class="cls-3" d="M75.73,39.25s.86,5.75-3.82,7.76c0,0-.52-4.82,3.82-7.76Z"/>
        <path class="cls-3" d="M73.84,31.24s1.95,5.39-2.18,8.01c0,0-1-4.09,2.18-8.01Z"/>
        <path class="cls-3" d="M70.27,24.3s2.97,3.28-.19,7.15c0,0-2.02-3.31.19-7.15Z"/>
        <path class="cls-3" d="M59.69,12.62s-.36,3.4,2.23,5.54c0,0,.95-3.04-2.23-5.54Z"/>
        <path class="cls-3" d="M60.63,18.94s-1.67-2.45-5.04-1.36c0,0,1.42,2.17,5.04,1.36Z"/>
        <path class="cls-3" d="M52.72,8.6s.28,2.7,3.01,4.54c0,0,.19-2.76-3.01-4.54Z"/>
        <path class="cls-3" d="M51.97,11.72s-1.34-2.25-4.82-1.94c0,0,2.01,2.41,4.82,1.94Z"/>
        <path class="cls-3" d="M65.6,17.84s2.95,3.23,1.09,6.46c0,0-2.48-3.06-1.09-6.46Z"/>
        <path class="cls-3" d="M65.35,24.9s-1.87-3.11-5.18-2.53c0,0,1.62,3.37,5.18,2.53Z"/>
      </g>
      <polygon class="cls-3" points="33.17 12.49 33.98 14.06 35.73 14.35 34.49 15.61 34.75 17.36 33.17 16.57 31.59 17.36 31.85 15.61 30.61 14.35 32.36 14.06 33.17 12.49"/>
      <path class="cls-2" d="M46.81,38.15v38.98c-2.45.73-3.69.92-5.49,1.08v-33.62c0-.62-.5-1.11-1.11-1.11s-1.11.5-1.11,1.11v33.1c-1.8-.94-3.61-2.1-5.43-3.48v-29.62c0-.62-.5-1.11-1.11-1.11s-1.11.5-1.11,1.11v27.83c-1.8-1.53-3.6-3.29-5.38-5.25v-22.58c0-.62-.5-1.11-1.11-1.11s-1.11.5-1.11,1.11v19.93c-2.17-2.74-3.99-5.62-5.53-8.53v-17.84c0-.59.48-1.07,1.07-1.07h26.39c.59,0,1.06.47,1.06,1.06Z"/>
      <rect class="cls-2" x="13.39" y="25.6" width="38.98" height="5.64" rx="2.82" ry="2.82"/>
      <rect class="cls-2" x="15.96" y="32.63" width="33.78" height="2.65" rx="1.32" ry="1.32"/>
      <path class="cls-1" d="M20.56,15.65v2.62c0,.12,8.1.89,11.97,5.01,0,0-2.08-4.51-11.97-7.63Z"/>
      <path class="cls-1" d="M25.32,14.31v2.2s4.8,2.45,7.27,5.32c0,0-.69-3.91-7.27-7.51Z"/>
      <path class="cls-1" d="M16.56,19.76l1.45,4.35-2.97-5.86c15.19,1.59,16.9,6.44,16.9,6.44-5.91-4.5-15.17-4.8-15.39-4.93Z"/>
      <path class="cls-1" d="M45.73,15.59v2.62c0,.12-8.1.89-11.97,5.01,0,0,2.08-4.51,11.97-7.63Z"/>
      <path class="cls-1" d="M41.03,14.31v2.2s-4.8,2.45-7.27,5.32c0,0,.69-3.91,7.27-7.51Z"/>
      <path class="cls-1" d="M49.73,19.7l-1.45,4.35,2.97-5.86c-15.19,1.59-16.9,6.44-16.9,6.44,5.91-4.5,15.17-4.8,15.39-4.93Z"/>
    </g>
  </g>
</svg>