<?xml version="1.0" encoding="UTF-8"?>
<svg id="Capa_2" data-name="Capa 2" xmlns="http://www.w3.org/2000/svg" viewBox="0 0 227.15 75.74">
  <defs>
    <style>
      .cls-1 {
        fill: #8c6c19;
      }

      .cls-2 {
        fill: #686767;
      }

      .cls-3 {
        fill: #113250;
      }

      .cls-4 {
        fill: #a08426;
      }

      .cls-5 {
        fill: #dadada;
      }
    </style>
  </defs>
  <g id="Firma_Base" data-name="Firma Base">
    <g>
      <g>
        <g>
          <path class="cls-3" d="M83.2,41.9c-2.54,0-4.83-.52-6.89-1.55-2.05-1.03-3.68-2.57-4.89-4.61-1.2-2.04-1.81-4.54-1.81-7.5,0-2.25.37-4.23,1.1-5.93.73-1.7,1.73-3.13,3-4.28,1.27-1.15,2.73-2.01,4.4-2.59,1.66-.57,3.42-.86,5.28-.86,1.49,0,2.87.17,4.12.51,1.26.34,2.43.81,3.53,1.41l.16,4.83h-.39l-1.96-3.14c-.26-.5-.55-.95-.86-1.35-.31-.41-.71-.71-1.18-.92-.39-.18-.78-.32-1.16-.41-.38-.09-.86-.14-1.43-.14-1.52,0-2.9.41-4.14,1.22-1.24.81-2.24,2.15-2.98,4.02-.75,1.87-1.12,4.43-1.12,7.67s.35,5.76,1.06,7.63c.71,1.87,1.67,3.21,2.88,4,1.22.8,2.58,1.2,4.1,1.2.84,0,1.5-.06,2-.18.5-.12.99-.29,1.49-.53.5-.21.88-.52,1.14-.92.26-.41.5-.84.71-1.32l1.73-3.85h.39l-.12,5.61c-1.1.58-2.33,1.05-3.69,1.41-1.36.37-2.85.55-4.47.55Z"/>
          <path class="cls-3" d="M95.44,41.19v-.39l.9-.35c.44-.18.75-.42.92-.73.17-.3.26-.71.26-1.24v-20.49c0-.52-.07-.94-.22-1.24-.14-.3-.46-.54-.96-.73l-.9-.35v-.39h18.8l.24,6.04h-.39l-1.69-3.69c-.24-.47-.48-.85-.75-1.14-.26-.29-.65-.43-1.18-.43h-7.07v11.34h4.2c.52,0,.92-.14,1.2-.41.27-.27.52-.65.73-1.12l.78-1.57h.39v7.07h-.39l-.78-1.65c-.24-.47-.48-.84-.75-1.12-.26-.27-.65-.41-1.18-.41h-4.2v12.21h7.93c.52,0,.93-.14,1.22-.41.29-.28.52-.66.71-1.16l1.61-3.69h.39l-.24,6.04h-19.59Z"/>
          <path class="cls-3" d="M119.3,41.19v-.39l.78-.27c.52-.16.87-.39,1.04-.71.17-.31.26-.73.26-1.26v-20.57c0-.52-.09-.94-.27-1.26-.18-.31-.54-.56-1.06-.75l-.75-.31v-.39h9.54c3.9,0,6.72.71,8.46,2.14,1.74,1.43,2.61,3.3,2.61,5.63,0,1.49-.36,2.86-1.08,4.1-.72,1.24-1.9,2.23-3.55,2.96-1.65.73-3.87,1.1-6.67,1.1h-1.33v7.22c0,1.02.51,1.69,1.53,2l1.18.35v.39h-10.68ZM127.27,30.44h1.49c1.28,0,2.33-.21,3.14-.63.81-.42,1.41-1.15,1.81-2.2.39-1.05.59-2.5.59-4.36s-.22-3.35-.65-4.4-1.07-1.77-1.9-2.18c-.84-.41-1.88-.61-3.14-.61h-1.33v14.37Z"/>
          <path class="cls-3" d="M143.55,41.19v-.39l.82-.27c.52-.18.86-.43,1.02-.73.16-.3.24-.73.24-1.28v-20.53c0-.52-.07-.94-.22-1.24-.14-.3-.46-.54-.96-.73l-.9-.35v-.39h11.23c3.09,0,5.46.58,7.1,1.75,1.65,1.16,2.47,2.78,2.47,4.85,0,1.15-.43,2.3-1.3,3.45s-2.22,2.04-4.08,2.67l5.46,10.83c.24.44.5.8.8,1.08.3.27.7.52,1.2.73l.51.2v.35h-7.03l-5.81-12.36h-2.67v9.7c0,.5.08.9.24,1.22.16.31.48.55.98.71l.94.35v.39h-10.05ZM151.44,28.04h1.88c1.88,0,3.24-.5,4.08-1.51.84-1.01,1.26-2.51,1.26-4.49s-.39-3.51-1.18-4.49-2.11-1.47-3.96-1.47h-2.08v11.97Z"/>
          <path class="cls-3" d="M170.28,41.19v-.39l.78-.31c.52-.18.87-.43,1.04-.75.17-.31.25-.73.25-1.26v-20.49c0-.52-.08-.94-.24-1.26-.16-.31-.51-.56-1.06-.75l-.78-.31v-.39h10.09v.39l-.78.31c-.52.18-.87.43-1.04.75-.17.31-.25.73-.25,1.26v20.49c0,.52.08.94.25,1.24.17.3.52.56,1.04.77l.78.31v.39h-10.09Z"/>
          <path class="cls-3" d="M187.58,41.9c-1.28,0-2.27-.25-2.96-.75-.69-.5-1.04-1.16-1.04-2,0-.73.26-1.3.77-1.69.51-.39,1.11-.59,1.79-.59s1.28.15,1.81.45c.52.3,1.01.82,1.45,1.55l.71,1.22c.13.18.29.27.49.27s.33-.12.41-.35c.16-.52.27-1.29.33-2.3.07-1.01.1-2.23.1-3.67,0-1.65-.04-3.77-.12-6.36-.08-2.59-.16-5.78-.24-9.58,0-1.12-.42-1.83-1.26-2.12l-.9-.31v-.39h10.28v.39l-.86.31c-.47.18-.79.43-.96.73s-.25.73-.25,1.28v7.77c0,2.56-.12,4.68-.35,6.36-.24,1.67-.62,3.13-1.14,4.36-.66,1.75-1.72,3.09-3.2,4.02-1.48.93-3.09,1.39-4.85,1.39Z"/>
          <path class="cls-3" d="M202.46,41.19v-.39l.98-.35c.52-.21.93-.46,1.22-.77.29-.3.52-.73.71-1.28l8.09-23.2h3.34l7.97,23.35c.21.58.44,1.01.71,1.31.26.3.67.56,1.22.77l.47.16v.39h-9.97v-.39l.59-.2c.55-.21.88-.5,1-.88.12-.38.1-.83-.06-1.35l-1.85-5.65h-8.71l-1.88,5.53c-.18.58-.24,1.03-.18,1.37s.37.62.92.82l.86.35v.39h-5.42ZM208.42,31.93h8.2l-3.96-12.21-4.24,12.21Z"/>
        </g>
        <g>
          <path class="cls-1" d="M76.73,53.45l.63.32c-.59.95-1.63,1.58-2.85,1.58-1.94,0-3.4-1.58-3.4-3.52s1.46-3.52,3.4-3.52c1.22,0,2.26.62,2.85,1.58l-.63.31c-.47-.71-1.27-1.18-2.22-1.18-1.56,0-2.67,1.26-2.67,2.82s1.11,2.82,2.67,2.82c.95,0,1.74-.47,2.22-1.19Z"/>
          <path class="cls-1" d="M82.89,52.9c0,.08,0,.17,0,.25h-3.66c.1.86.69,1.5,1.58,1.5.59,0,1.02-.27,1.31-.71l.62.31c-.39.67-1.06,1.09-1.93,1.09-1.35,0-2.32-1.08-2.32-2.43s.91-2.45,2.26-2.45,2.15,1.09,2.15,2.45ZM79.25,52.44h2.91c-.14-.75-.6-1.3-1.42-1.3s-1.34.55-1.49,1.3Z"/>
          <path class="cls-1" d="M88.19,52.65v2.62h-.71v-2.62c0-1.04-.44-1.49-1.21-1.49-.73,0-1.26.5-1.26,1.55v2.56h-.71v-4.75h.71v.55c.34-.38.8-.62,1.38-.62.94,0,1.8.45,1.8,2.2Z"/>
          <path class="cls-1" d="M92.25,54.97c-.34.28-.81.4-1.11.36-.62-.07-1.01-.45-1.01-1.55v-2.55h-.73v-.72h.73v-1.04l.72-.2v1.24h1.01v.72h-1.01v2.53c0,.39.02.62.19.77.16.13.55.14.85-.11l.36.54Z"/>
          <path class="cls-1" d="M95.86,50.47l-.14.72c-.1-.02-.21-.03-.33-.03-.73,0-1.26.5-1.26,1.55v2.56h-.72v-4.75h.72v.55c.33-.38.8-.62,1.37-.62.12,0,.24,0,.35.02Z"/>
          <path class="cls-1" d="M101.43,52.9c0,1.36-.96,2.44-2.32,2.44s-2.29-1.08-2.29-2.44.94-2.45,2.29-2.45,2.32,1.09,2.32,2.45ZM100.71,52.9c0-.98-.62-1.76-1.6-1.76s-1.57.79-1.57,1.76.59,1.74,1.57,1.74,1.6-.77,1.6-1.74Z"/>
          <path class="cls-1" d="M110.38,48.37v6.9h-.71v-.64c-.35.44-.89.71-1.57.71-1.36,0-2.23-1.08-2.23-2.43s.87-2.45,2.23-2.45c.68,0,1.21.28,1.57.72v-2.8h.71ZM109.64,52.9c0-.98-.56-1.76-1.54-1.76s-1.51.79-1.51,1.76.53,1.74,1.51,1.74,1.54-.77,1.54-1.74Z"/>
          <path class="cls-1" d="M116.15,52.9c0,.08,0,.17,0,.25h-3.66c.1.86.69,1.5,1.58,1.5.59,0,1.02-.27,1.31-.71l.62.31c-.39.67-1.06,1.09-1.93,1.09-1.35,0-2.32-1.08-2.32-2.43s.91-2.45,2.26-2.45,2.15,1.09,2.15,2.45ZM112.51,52.44h2.91c-.14-.75-.6-1.3-1.42-1.3s-1.34.55-1.49,1.3Z"/>
          <path class="cls-1" d="M125.69,50.51c0,1.16-.91,2.14-2.16,2.14h-1.87v2.62h-.72v-6.9h2.59c1.29,0,2.16.98,2.16,2.14ZM124.95,50.51c0-.77-.54-1.43-1.42-1.43h-1.87v2.86h1.87c.87,0,1.42-.66,1.42-1.43Z"/>
          <path class="cls-1" d="M129.55,50.47l-.14.72c-.1-.02-.21-.03-.33-.03-.73,0-1.26.5-1.26,1.55v2.56h-.72v-4.75h.72v.55c.33-.38.8-.62,1.37-.62.12,0,.24,0,.35.02Z"/>
          <path class="cls-1" d="M134.87,52.9c0,.08,0,.17,0,.25h-3.66c.1.86.69,1.5,1.58,1.5.59,0,1.02-.27,1.31-.71l.62.31c-.39.67-1.06,1.09-1.93,1.09-1.35,0-2.32-1.08-2.32-2.43s.91-2.45,2.26-2.45,2.15,1.09,2.15,2.45ZM131.23,52.44h2.91c-.14-.75-.6-1.3-1.42-1.3s-1.34.55-1.49,1.3Z"/>
          <path class="cls-1" d="M140.78,52.9c0,1.36-.87,2.44-2.23,2.44-.67,0-1.2-.28-1.57-.72v2.79h-.71v-6.9h.71v.65c.36-.44.9-.72,1.57-.72,1.36,0,2.23,1.09,2.23,2.45ZM140.07,52.9c0-.98-.53-1.76-1.51-1.76s-1.53.79-1.53,1.76.56,1.74,1.53,1.74,1.51-.77,1.51-1.74Z"/>
          <path class="cls-1" d="M145.13,55.27v-.57c-.42.36-.98.64-1.66.64-.88,0-1.53-.43-1.53-1.23,0-.94.73-1.36,2.19-1.6.74-.12,1.02-.26,1.02-.57,0-.33-.18-.85-1.08-.85-.84,0-1.07.41-1.19.82l-.63-.15c.13-.64.68-1.31,1.84-1.31s1.74.63,1.74,1.64,0,3.18,0,3.18h-.71ZM145.15,53.23v-.22c-.26.05-.56.09-.92.15-1.03.17-1.54.37-1.54.9s.6.61.84.61c.93,0,1.63-.58,1.62-1.44Z"/>
          <path class="cls-1" d="M149.75,50.47l-.14.72c-.1-.02-.21-.03-.33-.03-.73,0-1.26.5-1.26,1.55v2.56h-.72v-4.75h.72v.55c.33-.38.8-.62,1.37-.62.12,0,.24,0,.35.02Z"/>
          <path class="cls-1" d="M153.85,55.27v-.57c-.42.36-.98.64-1.66.64-.88,0-1.53-.43-1.53-1.23,0-.94.73-1.36,2.19-1.6.74-.12,1.03-.26,1.02-.57-.01-.33-.18-.85-1.08-.85-.84,0-1.07.41-1.19.82l-.63-.15c.13-.64.68-1.31,1.84-1.31s1.74.63,1.74,1.64,0,3.18,0,3.18h-.71ZM153.87,53.23v-.22c-.26.05-.56.09-.92.15-1.03.17-1.54.37-1.54.9s.6.61.84.61c.93,0,1.63-.58,1.62-1.44Z"/>
          <path class="cls-1" d="M159.44,53.94l.62.31c-.39.67-1.09,1.09-1.95,1.09-1.36,0-2.29-1.08-2.29-2.43s.93-2.45,2.28-2.45c.87,0,1.57.44,1.96,1.11l-.62.3c-.29-.43-.75-.72-1.34-.72-.97,0-1.56.79-1.56,1.76s.59,1.74,1.57,1.74c.58,0,1.04-.27,1.33-.71Z"/>
          <path class="cls-1" d="M161.37,49.22c0-.23.18-.4.39-.4s.4.18.4.4-.18.39-.4.39-.39-.18-.39-.39ZM161.41,50.52h.72v4.75h-.72v-4.75Z"/>
          <path class="cls-1" d="M168.18,52.9c0,1.36-.96,2.44-2.32,2.44s-2.29-1.08-2.29-2.44.94-2.45,2.29-2.45,2.32,1.09,2.32,2.45ZM167.46,52.9c0-.98-.62-1.76-1.6-1.76s-1.57.79-1.57,1.76.59,1.74,1.57,1.74,1.6-.77,1.6-1.74ZM167.24,48.37l-.98,1.35h-.54l.77-1.35h.75Z"/>
          <path class="cls-1" d="M173.49,52.65v2.62h-.71v-2.62c0-1.04-.44-1.49-1.21-1.49s-1.26.5-1.26,1.55v2.56h-.71v-4.75h.71v.55c.33-.38.8-.62,1.38-.62.94,0,1.8.45,1.8,2.2Z"/>
          <path class="cls-1" d="M179.18,48.37v6.9h-.71v-6.9h.71Z"/>
          <path class="cls-1" d="M184.78,52.65v2.62h-.71v-2.62c0-1.04-.44-1.49-1.21-1.49s-1.26.5-1.26,1.55v2.56h-.71v-4.75h.71v.55c.33-.38.8-.62,1.38-.62.94,0,1.8.45,1.8,2.2Z"/>
          <path class="cls-1" d="M188.85,54.97c-.33.28-.81.4-1.11.36-.62-.07-1.01-.45-1.01-1.55v-2.55h-.73v-.72h.73v-1.04l.72-.2v1.24h1.01v.72h-1.01v2.53c0,.39.02.62.19.77.16.13.55.14.85-.11l.36.54Z"/>
          <path class="cls-1" d="M194.22,52.9c0,.08,0,.17,0,.25h-3.66c.1.86.69,1.5,1.58,1.5.59,0,1.03-.27,1.31-.71l.62.31c-.39.67-1.06,1.09-1.93,1.09-1.35,0-2.32-1.08-2.32-2.43s.91-2.45,2.26-2.45,2.15,1.09,2.15,2.45ZM190.58,52.44h2.91c-.14-.75-.6-1.3-1.42-1.3s-1.34.55-1.49,1.3Z"/>
          <path class="cls-1" d="M199.89,50.52v4.55c0,1.52-.83,2.42-2.26,2.42-.83,0-1.6-.41-1.98-1.04l.59-.36c.27.43.82.71,1.39.71.97,0,1.54-.6,1.54-1.79v-.38c-.36.44-.89.71-1.56.71-1.36,0-2.23-1.08-2.23-2.43s.87-2.45,2.23-2.45c.67,0,1.2.27,1.56.71v-.64h.72ZM199.14,52.9c0-.98-.56-1.76-1.53-1.76s-1.51.79-1.51,1.76.53,1.74,1.51,1.74,1.53-.77,1.53-1.74Z"/>
          <path class="cls-1" d="M203.89,50.47l-.14.72c-.1-.02-.21-.03-.33-.03-.73,0-1.26.5-1.26,1.55v2.56h-.72v-4.75h.72v.55c.33-.38.8-.62,1.37-.62.12,0,.24,0,.35.02Z"/>
          <path class="cls-1" d="M207.99,55.27v-.57c-.42.36-.98.64-1.66.64-.88,0-1.53-.43-1.53-1.23,0-.94.73-1.36,2.19-1.6.74-.12,1.03-.26,1.02-.57-.01-.33-.18-.85-1.08-.85-.84,0-1.07.41-1.19.82l-.63-.15c.13-.64.68-1.31,1.84-1.31s1.74.63,1.74,1.64,0,3.18,0,3.18h-.71ZM208.01,53.23v-.22c-.26.05-.56.09-.92.15-1.03.17-1.54.37-1.54.9s.6.61.84.61c.93,0,1.63-.58,1.62-1.44Z"/>
          <path class="cls-1" d="M210.92,47.88v7.39h-.71v-7.39h.71Z"/>
          <path class="cls-1" d="M219.97,52.9c0,.08,0,.17,0,.25h-3.66c.1.86.69,1.5,1.58,1.5.59,0,1.03-.27,1.31-.71l.62.31c-.39.67-1.06,1.09-1.93,1.09-1.35,0-2.32-1.08-2.32-2.43s.91-2.45,2.26-2.45,2.15,1.09,2.15,2.45ZM216.33,52.44h2.91c-.14-.75-.6-1.3-1.42-1.3s-1.34.55-1.49,1.3Z"/>
          <path class="cls-1" d="M225.27,52.65v2.62h-.71v-2.62c0-1.04-.44-1.49-1.21-1.49s-1.26.5-1.26,1.55v2.56h-.71v-4.75h.71v.55c.33-.38.8-.62,1.38-.62.94,0,1.8.45,1.8,2.2Z"/>
          <path class="cls-1" d="M79.1,59.98v7.19h-.75v-5.76l-2.54,3.96h-.5l-2.52-3.96v5.76h-.75v-7.19h.69l2.83,4.48,2.84-4.48h.69Z"/>
          <path class="cls-1" d="M83.93,67.17v-.6c-.44.38-1.02.67-1.73.67-.91,0-1.59-.45-1.59-1.28,0-.98.76-1.42,2.28-1.66.77-.12,1.07-.27,1.06-.6-.01-.34-.19-.88-1.13-.88-.87,0-1.12.43-1.24.85l-.66-.15c.13-.67.71-1.37,1.92-1.37s1.82.66,1.82,1.7.01,3.32.01,3.32h-.74ZM83.95,65.04v-.23c-.27.05-.59.09-.95.15-1.07.17-1.6.39-1.6.93s.63.64.87.64c.97,0,1.69-.61,1.68-1.5Z"/>
          <path class="cls-1" d="M88.79,66.86c-.35.29-.84.42-1.16.38-.65-.07-1.05-.47-1.05-1.61v-2.66h-.76v-.75h.76v-1.09l.75-.21v1.29h1.05v.75h-1.05v2.64c0,.41.02.65.19.8.16.13.58.14.88-.11l.38.56Z"/>
          <path class="cls-1" d="M94.39,64.7c0,.08-.01.17-.01.26h-3.81c.1.89.72,1.56,1.64,1.56.62,0,1.07-.28,1.37-.74l.65.32c-.41.7-1.11,1.14-2.01,1.14-1.41,0-2.41-1.13-2.41-2.54s.94-2.56,2.35-2.56,2.24,1.14,2.24,2.56ZM90.6,64.22h3.03c-.14-.78-.63-1.35-1.48-1.35s-1.4.57-1.55,1.35Z"/>
          <path class="cls-1" d="M98.34,62.17l-.14.75c-.1-.02-.22-.03-.34-.03-.76,0-1.31.52-1.31,1.61v2.67h-.75v-4.95h.75v.57c.34-.4.83-.65,1.43-.65.12,0,.25.01.37.02Z"/>
          <path class="cls-1" d="M99.55,60.86c0-.24.19-.42.41-.42s.42.19.42.42-.19.41-.42.41-.41-.19-.41-.41ZM99.59,62.22h.75v4.95h-.75v-4.95Z"/>
          <path class="cls-1" d="M105.12,67.17v-.6c-.44.38-1.02.67-1.73.67-.91,0-1.59-.45-1.59-1.28,0-.98.76-1.42,2.28-1.66.77-.12,1.07-.27,1.06-.6-.01-.34-.19-.88-1.13-.88-.87,0-1.12.43-1.24.85l-.66-.15c.13-.67.71-1.37,1.92-1.37s1.82.66,1.82,1.7.01,3.32.01,3.32h-.74ZM105.14,65.04v-.23c-.27.05-.59.09-.95.15-1.07.17-1.6.39-1.6.93s.63.64.87.64c.97,0,1.69-.61,1.68-1.5Z"/>
          <path class="cls-1" d="M113.84,65.25c0,1.26-.57,2-1.7,2-.84,0-1.47-.5-1.64-.78l.54-.43c.18.22.55.47,1.07.47.61,0,.99-.38.99-1.24v-5.29h.75v5.27Z"/>
          <path class="cls-1" d="M119.57,62.22v4.95h-.74v-.57c-.34.4-.8.66-1.41.66-.98,0-1.91-.48-1.91-2.3v-2.73h.75v2.73c0,1.08.45,1.55,1.25,1.55s1.31-.51,1.31-1.61v-2.67h.74Z"/>
          <path class="cls-1" d="M123.73,62.17l-.14.75c-.1-.02-.22-.03-.34-.03-.76,0-1.31.52-1.31,1.61v2.67h-.75v-4.95h.75v.57c.34-.4.83-.65,1.43-.65.12,0,.25.01.37.02Z"/>
          <path class="cls-1" d="M124.99,62.22h.75v4.95h-.75v-4.95ZM126.68,59.98l-1.02,1.41h-.56l.8-1.41h.78Z"/>
          <path class="cls-1" d="M131.88,59.98v7.19h-.74v-.67c-.37.46-.92.74-1.63.74-1.42,0-2.32-1.13-2.32-2.54s.9-2.56,2.32-2.56c.71,0,1.26.29,1.63.75v-2.92h.74ZM131.11,64.7c0-1.02-.59-1.84-1.6-1.84s-1.57.82-1.57,1.84.55,1.82,1.57,1.82,1.6-.8,1.6-1.82Z"/>
          <path class="cls-1" d="M133.55,60.86c0-.24.19-.42.41-.42s.42.19.42.42-.19.41-.42.41-.41-.19-.41-.41ZM133.59,62.22h.75v4.95h-.75v-4.95Z"/>
          <path class="cls-1" d="M139.57,65.78l.65.32c-.41.7-1.14,1.14-2.03,1.14-1.42,0-2.38-1.13-2.38-2.54s.97-2.56,2.37-2.56c.9,0,1.63.46,2.04,1.16l-.65.31c-.3-.45-.78-.75-1.4-.75-1.01,0-1.62.82-1.62,1.84s.62,1.82,1.63,1.82c.61,0,1.09-.28,1.39-.74Z"/>
          <path class="cls-1" d="M144.63,67.17v-.6c-.44.38-1.02.67-1.73.67-.91,0-1.59-.45-1.59-1.28,0-.98.76-1.42,2.28-1.66.77-.12,1.07-.27,1.06-.6-.01-.34-.19-.88-1.13-.88-.87,0-1.12.43-1.24.85l-.66-.15c.13-.67.71-1.37,1.92-1.37s1.82.66,1.82,1.7.01,3.32.01,3.32h-.74ZM144.66,65.04v-.23c-.27.05-.59.09-.95.15-1.07.17-1.6.39-1.6.93s.63.64.87.64c.97,0,1.69-.61,1.68-1.5Z"/>
          <path class="cls-1" d="M154.29,62.22l-1.74,4.8c-.31.8-.54,1.36-.83,1.76-.39.52-.94.62-1.54.46l.13-.73c.7.13.89-.06,1.39-1.33l-1.81-4.95h.8l1.4,3.91,1.41-3.91h.79Z"/>
          <path class="cls-1" d="M163.12,65.08h-2.91l-.78,2.08h-.82l2.71-7.19h.68l2.72,7.19h-.82l-.78-2.08ZM162.84,64.34l-1.18-3.18-1.17,3.18h2.35Z"/>
          <path class="cls-1" d="M170.57,59.98v7.19h-.74v-.67c-.37.46-.92.74-1.63.74-1.42,0-2.32-1.13-2.32-2.54s.9-2.56,2.32-2.56c.71,0,1.26.29,1.63.75v-2.92h.74ZM169.8,64.7c0-1.02-.59-1.84-1.6-1.84s-1.57.82-1.57,1.84.56,1.82,1.57,1.82,1.6-.8,1.6-1.82Z"/>
          <path class="cls-1" d="M179.19,64.44v2.73h-.74v-2.73c0-1.08-.36-1.55-1.16-1.55-.76,0-1.2.52-1.2,1.61v2.67h-.74v-2.73c0-1.08-.37-1.55-1.17-1.55-.76,0-1.19.52-1.19,1.61v2.67h-.75v-4.95h.75v.5c.31-.36.75-.57,1.31-.57.65,0,1.21.2,1.53.86.34-.52.87-.86,1.57-.86.99,0,1.79.47,1.79,2.29Z"/>
          <path class="cls-1" d="M180.85,60.86c0-.24.19-.42.41-.42s.42.19.42.42-.19.41-.42.41-.41-.19-.41-.41ZM180.9,62.22h.75v4.95h-.75v-4.95Z"/>
          <path class="cls-1" d="M187.41,64.44v2.73h-.74v-2.73c0-1.08-.46-1.55-1.26-1.55-.76,0-1.31.52-1.31,1.61v2.67h-.74v-4.95h.74v.57c.35-.4.83-.65,1.44-.65.98,0,1.88.47,1.88,2.29Z"/>
          <path class="cls-1" d="M189.08,60.86c0-.24.19-.42.41-.42s.42.19.42.42-.19.41-.42.41-.41-.19-.41-.41ZM189.13,62.22h.75v4.95h-.75v-4.95Z"/>
          <path class="cls-1" d="M195.04,65.76c0,1.04-.91,1.49-1.81,1.49-.96,0-1.68-.47-1.95-1.16l.68-.28c.15.44.62.7,1.27.7.41,0,1.06-.14,1.06-.75,0-.39-.26-.54-1.13-.73-.74-.14-1.68-.34-1.83-1.26-.12-.88.62-1.62,1.71-1.62.86,0,1.52.42,1.75,1.07l-.69.27c-.12-.36-.49-.58-1.05-.6-.72-.02-1.06.36-.99.76.06.39.51.5,1.23.67.83.17,1.74.5,1.74,1.45Z"/>
          <path class="cls-1" d="M199.06,66.86c-.35.29-.84.42-1.16.38-.65-.07-1.05-.47-1.05-1.61v-2.66h-.76v-.75h.76v-1.09l.75-.21v1.29h1.05v.75h-1.05v2.64c0,.41.02.65.2.8.16.13.57.14.88-.11l.38.56Z"/>
          <path class="cls-1" d="M202.82,62.17l-.14.75c-.1-.02-.22-.03-.34-.03-.76,0-1.31.52-1.31,1.61v2.67h-.75v-4.95h.75v.57c.34-.4.83-.65,1.43-.65.12,0,.25.01.37.02Z"/>
          <path class="cls-1" d="M207.08,67.17v-.6c-.44.38-1.02.67-1.72.67-.91,0-1.59-.45-1.59-1.28,0-.98.76-1.42,2.28-1.66.77-.12,1.07-.27,1.06-.6-.01-.34-.18-.88-1.13-.88-.87,0-1.12.43-1.24.85l-.66-.15c.13-.67.71-1.37,1.92-1.37s1.82.66,1.82,1.7.01,3.32.01,3.32h-.74ZM207.11,65.04v-.23c-.27.05-.59.09-.95.15-1.07.17-1.6.39-1.6.93s.63.64.87.64c.97,0,1.69-.61,1.68-1.5Z"/>
          <path class="cls-1" d="M211.95,66.86c-.35.29-.84.42-1.16.38-.65-.07-1.05-.47-1.05-1.61v-2.66h-.76v-.75h.76v-1.09l.75-.21v1.29h1.05v.75h-1.05v2.64c0,.41.02.65.2.8.16.13.57.14.88-.11l.38.56Z"/>
          <path class="cls-1" d="M213.21,60.86c0-.24.19-.42.41-.42s.42.19.42.42-.19.41-.42.41-.41-.19-.41-.41ZM213.25,62.22h.75v4.95h-.75v-4.95Z"/>
          <path class="cls-1" d="M219.65,62.22l-1.81,4.95h-.79l-1.8-4.95h.79l1.41,3.91,1.4-3.91h.8Z"/>
          <path class="cls-1" d="M223.91,67.17v-.6c-.44.38-1.02.67-1.72.67-.91,0-1.59-.45-1.59-1.28,0-.98.76-1.42,2.28-1.66.77-.12,1.07-.27,1.06-.6-.01-.34-.18-.88-1.13-.88-.87,0-1.12.43-1.24.85l-.66-.15c.13-.67.71-1.37,1.92-1.37s1.82.66,1.82,1.7.01,3.32.01,3.32h-.74ZM223.93,65.04v-.23c-.27.05-.59.09-.95.15-1.07.17-1.6.39-1.6.93s.63.64.87.64c.97,0,1.69-.61,1.68-1.5Z"/>
        </g>
      </g>
      <g>
        <path class="cls-5" d="M56.86,35c-1.2,21.38-19.1,26.85-19.1,26.85-1.43.43-2.9.74-4.41.91-.87.09-1.75.14-2.64.14-14.44-.02-27.28-13.62-27.28-29.03C3.44,17.23,16.27,6.78,30.71,6.78s26.65,13,26.14,28.23Z"/>
        <path class="cls-3" d="M6.82,23.92c0-13.19,6.78-19.2,11.72-20.64,5.75-1.68,10.98.6,10.98.6C17.71-4.43,6.78,2.13,3.3,9.46,1.16,13.97,0,18.89,0,23.79c0,30.87,21.47,51.96,36.27,51.96s17.27-16.92,17.27-16.92c0,0-2.56,11.45-15.69,10.79-13.04-.66-31.03-20.67-31.03-45.7Z"/>
        <g>
          <path class="cls-4" d="M37.57,61.91v-1.54c3.15-1.18,4.88-2.8,5.65-3.7.33-.39.52-.87.56-1.38.28-3.57,2.79-5.81,2.79-5.81,0,0,1.37,3.1-.57,6.37l1.85-1.66c.15-.13.23-.33.21-.53-.09-1.26-.3-5.97,1.52-7.88,0,0,1.91,2.46.54,5.85.08-.08,1.13-.74,1.61-2.41.14-.5,0-1.14-.23-1.88-1.19-3.91.44-5.83.31-5.6,1.9.91,1.72,5.4,1.72,5.4,0,0,1.36-2.49,1.29-3.51,0,0-2.14-2.32-1.74-6.86,0,0,2.58,1.59,2.68,5.2l.71-3.85s-3.16-2.92-2.98-6.18c0,0,2.47.88,3.17,4.34,0,0,.37-3.12.1-3.98-.06-.19-.26-.42-.47-.63-.3-.3-.65-.54-1-.77-2.47-1.62-2.69-4.01-2.69-4.01,0,0,2.86.94,3.93,3.76,0,0-.58-3.98-1.39-5.28,0,0-2.68.36-4.07-3,0,0,2.24-.18,3.89,2.32,0,0-2.19-9.05-11.04-13.04,0,0-2.53.35-3.47-.63,0,0,.56-.31,1.58-.3.58,0,1.32.12,2.19.46,2.41.94,17,9.92,12.03,31.8,2.16-4.12,4.74-5.05,4.74-5.05-.37,5.84-5.2,6.19-5.2,6.19l-1.81,4.22c2.15-2.68,5.77-4.16,5.77-4.16-1.68,6.37-6.84,5.63-6.84,5.63-.9,1.69-2.48,3.55-2.48,3.55,2.69-2.4,7.24-3.08,7.24-3.08-2.39,5.02-7.38,4.76-8.63,4.6-.19-.02-.37.04-.52.17l-2.32,2.14c4.17-1.68,7.58-1.21,7.58-1.21.09-.07-2.69,4.43-8.39,3.14-.66-.15-1.14-.69-1.92-.13,0,0-3.2,2.12-5.9,2.91Z"/>
          <path class="cls-4" d="M60.78,31.5s.69,4.62-3.06,6.23c0,0-.41-3.87,3.06-6.23Z"/>
          <path class="cls-4" d="M59.27,25.07s1.56,4.33-1.75,6.43c0,0-.8-3.28,1.75-6.43Z"/>
          <path class="cls-4" d="M56.4,19.5s2.39,2.63-.16,5.74c0,0-1.62-2.65.16-5.74Z"/>
          <path class="cls-4" d="M47.9,10.13s-.29,2.73,1.79,4.45c0,0,.76-2.44-1.79-4.45Z"/>
          <path class="cls-4" d="M48.66,15.2s-1.34-1.97-4.05-1.1c0,0,1.14,1.74,4.05,1.1Z"/>
          <path class="cls-4" d="M42.32,6.91s.22,2.17,2.41,3.64c0,0,.16-2.21-2.41-3.64Z"/>
          <path class="cls-4" d="M41.71,9.41s-1.07-1.8-3.87-1.56c0,0,1.61,1.94,3.87,1.56Z"/>
          <path class="cls-4" d="M52.65,14.32s2.36,2.59.87,5.19c0,0-1.99-2.46-.87-5.19Z"/>
          <path class="cls-4" d="M52.45,19.99s-1.5-2.5-4.16-2.03c0,0,1.3,2.7,4.16,2.03Z"/>
        </g>
        <polygon class="cls-4" points="26.62 10.02 27.28 11.29 28.68 11.52 27.68 12.53 27.89 13.94 26.62 13.3 25.35 13.94 25.57 12.53 24.57 11.52 25.97 11.29 26.62 10.02"/>
        <path class="cls-3" d="M37.57,30.62v31.29c-1.96.59-2.96.74-4.41.87v-26.99c0-.49-.4-.89-.89-.89s-.89.4-.89.89v26.57c-1.44-.75-2.9-1.68-4.36-2.79v-23.77c0-.49-.4-.89-.89-.89s-.89.4-.89.89v22.34c-1.45-1.23-2.89-2.64-4.32-4.21v-18.12c0-.49-.4-.89-.89-.89s-.89.4-.89.89v16c-1.74-2.2-3.2-4.51-4.44-6.84v-14.32c0-.47.39-.86.86-.86h21.18c.47,0,.85.38.85.85Z"/>
        <rect class="cls-3" x="10.75" y="20.54" width="31.29" height="4.53" rx="2.26" ry="2.26"/>
        <rect class="cls-3" x="12.81" y="26.19" width="27.11" height="2.12" rx="1.06" ry="1.06"/>
        <path class="cls-2" d="M16.5,12.56v2.1c0,.1,6.5.72,9.61,4.02,0,0-1.67-3.62-9.61-6.12Z"/>
        <path class="cls-2" d="M20.32,11.49v1.76s3.85,1.97,5.84,4.27c0,0-.55-3.14-5.84-6.03Z"/>
        <path class="cls-2" d="M13.29,15.86l1.16,3.49-2.38-4.7c12.19,1.28,13.57,5.17,13.57,5.17-4.74-3.62-12.17-3.85-12.35-3.96Z"/>
        <path class="cls-2" d="M36.7,12.52v2.1c0,.1-6.5.72-9.61,4.02,0,0,1.67-3.62,9.61-6.12Z"/>
        <path class="cls-2" d="M32.93,11.49v1.76s-3.85,1.97-5.84,4.27c0,0,.55-3.14,5.84-6.03Z"/>
        <path class="cls-2" d="M39.92,15.81l-1.16,3.49,2.38-4.7c-12.19,1.28-13.57,5.17-13.57,5.17,4.74-3.62,12.17-3.85,12.35-3.96Z"/>
      </g>
    </g>
  </g>
</svg>